<svg width="154" height="44" viewBox="0 0 154 44" fill="none" xmlns="http://www.w3.org/2000/svg">
<path d="M80.8644 20.4561C80.8644 21.0428 80.6057 21.466 79.8068 21.466H74.6855C74.0284 21.466 73.6507 21.2777 73.6507 20.6672C73.6507 20.0566 73.9094 19.7514 74.6855 19.7514H80.8644V20.4561ZM103.441 18.0357V17.3548C103.441 16.7442 103.7 16.3448 104.522 16.3448H109.644C110.348 16.3448 110.7 16.5517 110.7 17.214C110.7 17.778 110.419 18.0357 109.69 18.0357H103.441ZM116.879 13.5022V24.3087H122.053V16.4441H126.281C127.715 16.4441 128.443 16.8901 128.443 18.2757V24.3138H133.611V17.8484C133.611 14.8174 131.943 13.5022 127.221 13.5022H116.879ZM104.146 13.5022C99.9878 13.5022 98.3197 14.8878 98.3197 18.0129V20.1508C98.3197 22.8516 99.9878 24.3087 103.746 24.3087H114.695V21.466H104.78C103.794 21.466 103.465 21.1835 103.465 20.4561V20.009H111.288C113.99 20.009 115.516 19.1636 115.516 17.1436V16.65C115.516 14.8174 114.6 13.5022 110.019 13.5022H104.146ZM87.5369 24.3087H92.7048V17.214C92.7048 16.7442 92.8931 16.4389 93.5274 16.4389H97.5446V13.5022H91.7879C88.7104 13.5022 87.5359 14.6529 87.5359 16.5797L87.5369 24.3087ZM69.8695 13.5022V16.35H79.5771C80.5405 16.35 80.8696 16.679 80.8696 17.3848V17.7987H73.065C69.7992 17.7987 68.815 19.1439 68.815 20.8555V21.2777C68.815 23.6505 70.7181 24.3087 74.4527 24.3087H80.1856C84.2493 24.3087 86.0116 23.3918 86.0116 20.1974V17.6838C86.0116 14.9819 84.3435 13.5022 80.5612 13.5022H69.8695ZM38.9534 19.5165C38.9534 22.922 40.6919 24.3087 45.1789 24.3087H55.022V21.3957H45.9301C44.8498 21.3957 44.1213 20.9021 44.1213 19.3519V18.4123C44.1213 17.0257 44.8032 16.4389 45.9074 16.4389H55.022V13.5022H45.0381C40.6205 13.5022 38.9534 15.3576 38.9534 18.3182V19.5165ZM56.5732 11.7865V24.3076H67.802V21.3719H61.7411V11.7865H56.5732ZM24.318 18.788V11.7865H21.404C19.5952 11.7865 18.5614 12.5108 17.48 13.3604L3.66626 24.3087H9.8917L19.055 16.8849V24.3087H23.3536L32.2344 16.8373V24.3087H37.4964V11.7875H34.63C33.0777 11.7875 31.9995 12.4218 30.9181 13.3149L24.318 18.788Z" fill="black"/>
<path d="M146.041 2.69568C143.157 2.69568 139.092 3.55664 134.686 5.16887C130.749 6.60119 126.979 8.45788 123.444 10.7061C125.744 9.76548 130.283 8.70273 134.026 8.70273C139.078 8.70273 142.678 10.6378 137.363 17.4199C153.033 7.15984 152.6 2.69568 146.041 2.69568Z" fill="#FF8000"/>
<path d="M93.1332 35.2869C93.8265 35.2869 94.3377 35.4128 94.6668 35.6646C94.9958 35.9164 95.1607 36.2979 95.1614 36.8091C95.166 37.0195 95.121 37.2279 95.03 37.4176C94.945 37.5871 94.8263 37.7374 94.6812 37.8595C94.5395 37.9782 94.3826 38.0774 94.2145 38.1544L95.7088 40.3668H94.5126L93.3029 38.4172H92.7265V40.3668H91.6523V35.2869H93.1332ZM93.0556 36.1696H92.7275V37.5428H93.0762C93.4322 37.5428 93.6868 37.4828 93.841 37.3648C93.9193 37.3022 93.9812 37.2217 94.0216 37.1299C94.0619 37.0382 94.0795 36.9381 94.0728 36.8381C94.0728 36.596 93.9896 36.4235 93.8234 36.3207C93.6568 36.2183 93.4001 36.1686 93.0545 36.1686L93.0556 36.1696Z" fill="black"/>
<path d="M102.784 40.3658L102.414 39.1561H100.564L100.194 40.3658H99.0317L100.824 35.2652H102.14L103.941 40.3658H102.784ZM102.163 38.2527L101.793 37.072C101.769 36.9913 101.739 36.8888 101.701 36.7615C101.662 36.6342 101.625 36.5132 101.587 36.3849C101.548 36.2565 101.518 36.1448 101.495 36.0506C101.471 36.1448 101.439 36.2628 101.398 36.4024C101.358 36.5421 101.32 36.6756 101.285 36.8009C101.249 36.9261 101.221 37.0151 101.203 37.0678L100.84 38.2485L102.163 38.2527Z" fill="black"/>
<path d="M109.516 36.1148C109.332 36.1055 109.149 36.1431 108.984 36.224C108.818 36.3049 108.676 36.4265 108.571 36.5773C108.352 36.8857 108.243 37.3076 108.244 37.8429C108.244 38.3782 108.345 38.797 108.546 39.0991C108.748 39.3951 109.071 39.5431 109.516 39.5431C109.725 39.5431 109.934 39.5195 110.137 39.4727C110.367 39.4193 110.593 39.3527 110.814 39.273V40.1764C110.6 40.2639 110.378 40.3308 110.152 40.3761C109.91 40.4208 109.665 40.4423 109.419 40.4403C108.893 40.4403 108.461 40.3323 108.125 40.1164C107.786 39.8987 107.525 39.5801 107.377 39.2057C107.208 38.7693 107.125 38.3038 107.135 37.8357C107.126 37.3678 107.221 36.9039 107.413 36.4769C107.586 36.0967 107.867 35.7755 108.221 35.5529C108.612 35.3191 109.063 35.2027 109.518 35.2176C109.774 35.2182 110.029 35.2505 110.277 35.3138C110.526 35.3773 110.769 35.4642 111.001 35.5736L110.653 36.449C110.466 36.36 110.275 36.2816 110.08 36.2141C109.899 36.1499 109.709 36.1163 109.516 36.1148Z" fill="black"/>
<path d="M116.863 40.3658H114.554V39.7542L115.175 39.4696V36.182L114.554 35.8975V35.2869H116.867V35.8985L116.246 36.1831V39.4706L116.867 39.7552L116.863 40.3658Z" fill="black"/>
<path d="M125.161 40.3658H123.795L121.582 36.5287H121.555C121.564 36.7708 121.574 37.0123 121.587 37.2531C121.599 37.4938 121.61 37.7353 121.619 37.9774V40.3678H120.659V35.2869H122.018L124.224 39.0929H124.245L124.217 38.3965C124.208 38.164 124.201 37.9291 124.195 37.6918V35.2869H125.163L125.161 40.3658Z" fill="black"/>
<path d="M131.241 37.5128H133.255V40.1505C132.985 40.242 132.708 40.3132 132.427 40.3637C132.105 40.4184 131.779 40.4448 131.452 40.4423C130.693 40.4423 130.11 40.2192 129.701 39.7728C129.293 39.3265 129.089 38.6769 129.09 37.8243C129.079 37.3457 129.186 36.8718 129.4 36.4438C129.601 36.0581 129.915 35.7429 130.3 35.5404C130.748 35.3147 131.246 35.2045 131.748 35.2197C132.017 35.2196 132.284 35.2484 132.546 35.3055C132.79 35.3569 133.028 35.4332 133.257 35.5332L132.901 36.3942C132.731 36.3085 132.552 36.2416 132.368 36.1944C132.165 36.1425 131.957 36.1164 131.747 36.1168C131.461 36.1094 131.178 36.1833 130.932 36.33C130.699 36.4752 130.514 36.6852 130.399 36.9343C130.268 37.2197 130.203 37.5311 130.211 37.845C130.205 38.1447 130.251 38.4431 130.345 38.7277C130.421 38.9787 130.579 39.1965 130.795 39.3451C131.011 39.4937 131.272 39.5643 131.533 39.5452C131.662 39.5468 131.79 39.5399 131.918 39.5245C132.021 39.51 132.125 39.4934 132.216 39.4748V38.4089H131.256L131.241 37.5128Z" fill="black"/>
</svg>
